<svg width="25" height="25" viewBox="0 0 25 25" fill="none" xmlns="http://www.w3.org/2000/svg">
<g clip-path="url(#clip0_361_936)">
<path d="M19.5842 4.1665C16.9238 4.1665 10.5097 4.59411 6.66126 8.44254C4.05293 11.0509 3.94043 15.2024 6.31178 17.9514L3.31543 20.9478L4.05189 21.6842L7.04824 18.6879C8.3571 19.817 9.98158 20.3879 11.6092 20.3879C13.3998 20.3879 15.191 19.7045 16.5571 18.3384C21.505 13.3905 20.7982 4.2014 20.7982 4.2014C20.7982 4.2014 20.3446 4.1665 19.5842 4.1665ZM7.04772 17.2155C6.14668 16.1446 5.65345 14.8061 5.65345 13.3899C5.65345 11.7993 6.27272 10.3035 7.39772 9.17848C10.7456 5.83057 16.316 5.27275 19.0488 5.2139L7.04772 17.2155ZM15.8206 17.6014C14.6956 18.7264 13.2003 19.3457 11.6092 19.3457C10.1936 19.3457 8.85501 18.8524 7.78418 17.9519L19.7805 5.95557C19.7175 8.72067 19.1514 14.2707 15.8206 17.6014Z" fill="white"/>
</g>
<defs>
<clipPath id="clip0_361_936">
<rect width="25" height="25" fill="white"/>
</clipPath>
</defs>
</svg>
