<svg width="100" height="100" viewBox="0 0 100 100" fill="none" xmlns="http://www.w3.org/2000/svg">
  <svg x="15.547" y="12.000" width="68.907" height="76.000" viewBox="0 0 68 75" preserveAspectRatio="xMidYMid meet">

<path d="M42.5199 26.0131C42.5199 26.0131 47.125 28.0083 46.1164 37.5611C45.1078 47.1139 33.1713 65.185 31.6584 66.992C30.1455 68.7989 24.1773 74.1342 16.3587 73.1871C8.54016 72.24 4.51332 67.3277 4.51332 67.3277M6.86421 45.5902C4.9835 43.6766 -2.26253 35.2048 6.60637 26.2013C16.6943 15.9595 25.3869 28.703 25.3869 28.703M30.0697 25.619C30.0526 23.5306 30.5152 19.383 34.1098 17.1782M34.1098 17.1782C34.2141 17.1142 34.3202 17.0521 34.4302 16.9919C39.7273 14.0671 45.1912 16.563 47.2918 18.1972C49.3943 19.8333 50.6551 21.3336 51.4115 22.2186C52.168 23.1036 55.4459 29.1261 56.6233 30.4167C57.7987 31.7074 65.4486 37.9045 66.7093 44.3578C67.9701 50.8131 64.7774 54.1688 63.8522 55.9757C62.9271 57.7826 59.3135 61.742 55.4459 63.6343C51.5784 65.5286 45.2746 65.5286 40.988 63.6343C38.5367 62.5532 37.0181 61.1617 36.1668 60.1679M34.1098 17.1782C30.1247 9.46141 33.0007 0.298828 33.0007 0.298828M32.5609 7.27032C32.5609 7.27032 36.8683 2.79474 44.3494 4C51.8305 5.20526 54.6364 10.3679 54.6364 10.3679C54.6364 10.3679 51.7016 9.76625 46.4292 12.433C41.1568 15.0997 36.2635 12.3476 35.2625 11.8313C34.2634 11.315 32.7542 9.41495 33.2149 8.68714C33.6756 7.95932 36.2806 6.41053 41.3236 6.92679C46.3666 7.44306 49.8133 9.42272 49.8133 9.42272M36.9517 7.6992C36.9517 7.6992 37.8769 9.24799 40.734 10.0224C43.5911 10.7968 45.4414 10.6241 45.4414 10.6241M41.3236 6.92493C41.3236 6.92493 43.5929 5.20336 45.4433 5.3761M41.2383 24.8253C45.0926 27.6822 44.6016 32.3985 43.7598 35.496C42.918 38.5936 37.5394 49.3517 36.1099 52.1038C34.6804 54.8578 28.1245 64.1506 26.4429 65.7013C24.7612 67.2501 17.1114 75.2541 7.36092 69.4879C-2.38955 63.7216 1.8155 53.5672 2.40322 51.7603C2.99094 49.9533 8.45484 43.5854 10.8929 41.0895C13.331 38.5936 23.2502 30.2461 26.1926 28.0956C29.135 25.9452 36.364 21.2095 41.2383 24.8253ZM24.8466 42.8964C27.1159 44.7034 31.3191 48.6627 27.0325 55.6322C22.7459 62.6018 16.1047 59.3334 14.3396 58.2135C12.5746 57.0937 6.68979 51.4148 14.3396 44.2725C18.9523 39.9658 24.8466 42.8964 24.8466 42.8964Z" stroke="#252424" stroke-width="2" stroke-miterlimit="10"/>

  </svg>
</svg>
